<svg width="47" height="52" viewBox="0 0 47 52" fill="none" xmlns="http://www.w3.org/2000/svg">
<g clip-path="url(#clip0_307_2)">
<path d="M44.8466 26.0001C42.7103 37.818 36.3012 49.6363 36.3012 49.6363C36.3012 49.6363 34.1646 51.9998 23.483 51.9998C12.8011 51.9998 10.6649 49.6363 10.6649 49.6363C10.6649 49.6363 4.25577 37.818 2.11914 26.0001H44.8466Z" fill="#C82E25"/>
<path d="M27.9133 51.8431L27.6191 47.1274C30.6903 46.892 32.397 46.4246 33.2126 46.1277C34.3881 43.7884 37.3447 37.5943 39.3319 30.7271H32.0485V26.0001H44.9469L44.2459 28.9626C42.0564 38.2119 37.8035 46.789 36.5529 49.1988L36.22 49.8384L35.618 50.1544C34.7054 50.6348 32.4917 51.4934 27.9133 51.8431Z" fill="#AF0A00"/>
<path d="M22.6988 51.989C22.7008 51.9886 22.7066 51.9808 22.709 51.9808C26.0258 46.8552 30.6942 37.8111 32.0285 26.0001H2.11914C4.25577 37.818 10.6649 49.6363 10.6649 49.6363C10.6649 49.6363 12.7162 51.8734 22.6988 51.989Z" fill="#D2514A"/>
<path d="M23.4705 42.5454C19.0913 42.5454 15.3735 40.7658 13.0245 37.6046C12.2405 37.7509 11.4468 37.8223 10.6523 37.818V33.091C11.6639 33.091 12.5245 32.956 13.2099 32.6894L14.8509 32.051L15.7478 33.6991C16.5858 35.2377 18.7044 37.818 23.4705 37.818C27.2196 37.818 29.3245 36.1968 30.4304 34.8361L33.6075 37.9981C31.2229 40.9307 27.6233 42.5454 23.4705 42.5454Z" fill="#C82E25"/>
<path d="M36.3089 37.818C34.8138 37.818 33.4767 37.5929 32.3345 37.1489L33.7509 32.6894C35.0477 33.1936 37.2778 33.3459 38.6203 32.4678L40.7965 36.5347C39.4966 37.3865 37.9862 37.818 36.3089 37.818Z" fill="#AF0A00"/>
<path d="M42.7215 18.9092C42.7215 18.9092 40.5849 0 23.4943 0C6.40323 0 4.267 18.9092 4.267 18.9092C4.267 18.9092 -0.00585938 18.9092 -0.00585938 23.6362C-0.00585938 28.3636 6.40323 28.3636 6.40323 28.3636C6.40323 28.3636 6.40323 33.0911 10.6761 33.0911C14.9486 33.0911 14.9486 30.7271 14.9486 30.7271C14.9486 33.0911 17.0852 37.818 23.4943 37.818C29.9034 37.818 32.0396 33.0911 32.0396 30.7271C32.0396 30.7271 32.0396 33.0911 36.3125 33.0911C40.5849 33.0911 40.5849 28.3636 40.5849 28.3636C40.5849 28.3636 46.994 28.3636 46.994 23.6362C46.994 18.9092 42.7215 18.9092 42.7215 18.9092Z" fill="#FDCF6D"/>
<path d="M36.3188 30.7272C38.1558 30.7272 38.4457 29.2375 38.4551 28.3498L38.4594 26.0071L40.5862 26.0002C40.6257 26.0002 44.8642 25.857 44.8642 23.6363C44.8642 21.6039 43.5173 21.2832 42.7154 21.2728L42.7405 18.9093C44.861 18.937 47.0004 20.4094 47.0004 23.6363C47.0004 27.3748 42.8093 28.3624 40.5913 28.3637V28.3659C40.5663 30.7237 39.2355 33.0911 36.3188 33.0911V30.7272Z" fill="#FDBC34"/>
<path d="M12.9695 49.1101C8.66654 41.9694 6.52483 34.9421 6.43604 34.6466L8.46196 33.8987C8.48269 33.9679 10.6099 40.9333 14.747 47.7992L12.9695 49.1101Z" fill="#D96C66"/>
<path d="M17.0852 7.09088C6.40323 7.09088 4.267 18.9092 4.267 18.9092C4.267 18.9092 -0.00585938 18.9092 -0.00585938 23.6362C-0.00585938 28.3636 6.40323 28.3636 6.40323 28.3636C6.40323 28.3636 6.40323 33.091 10.6761 33.091C14.9486 33.091 14.9486 30.7271 14.9486 30.7271C14.9486 33.091 17.0852 37.818 23.4943 37.818C32.0396 37.818 34.1758 7.09088 17.0852 7.09088Z" fill="#FEE3AA"/>
<path d="M23.4943 37.818C18.0052 37.818 15.6726 34.3652 15.0968 31.909H14.4459C13.8419 32.5725 12.6547 33.091 10.6761 33.091C7.75945 33.091 6.42827 30.7202 6.40323 28.3705L6.3958 28.3636C4.18759 28.3636 -0.00585938 27.3755 -0.00585938 23.6362C-0.00585938 20.4093 2.13663 18.9369 4.26074 18.9092L5.12329 18.8988L5.14637 21.2623L4.2846 21.2727C3.48034 21.2831 2.13037 21.6038 2.13037 23.6362C2.13037 25.8568 6.36881 26.0001 6.41145 26.0001L8.51443 26.0209L8.53947 28.3428C8.54885 29.2339 8.83911 30.7271 10.6761 30.7271C12.0687 30.7271 12.6633 30.4306 12.8593 30.299L12.9614 29.5456H17.0852V30.7271C17.0852 31.7255 18.1731 35.4545 23.4943 35.4545V37.818Z" fill="#FDCF6D"/>
<path d="M21.3662 7.09091C21.3662 8.39622 20.4098 9.4544 19.23 9.4544C18.0502 9.4544 17.0938 8.39622 17.0938 7.09091C17.0938 5.7856 18.0502 4.72742 19.23 4.72742C20.4098 4.72742 21.3662 5.7856 21.3662 7.09091Z" fill="#993B17"/>
<path d="M32.0247 4.72739C32.0247 6.0327 31.0683 7.09088 29.8885 7.09088C28.7084 7.09088 27.752 6.0327 27.752 4.72739C27.752 3.42165 28.7084 2.36346 29.8885 2.36346C31.0683 2.36346 32.0247 3.42165 32.0247 4.72739Z" fill="#993B17"/>
<path d="M27.7744 23.6362C27.7744 24.9419 26.818 26.0001 25.6382 26.0001C24.4584 26.0001 23.502 24.9419 23.502 23.6362C23.502 22.3309 24.4584 21.2727 25.6382 21.2727C26.818 21.2727 27.7744 22.3309 27.7744 23.6362Z" fill="#AD6143"/>
<path d="M38.433 14.1818C38.433 15.4871 37.4766 16.5453 36.2968 16.5453C35.1166 16.5453 34.1602 15.4871 34.1602 14.1818C34.1602 12.8765 35.1166 11.8183 36.2968 11.8183C37.4766 11.8183 38.433 12.8765 38.433 14.1818Z" fill="#993B17"/>
<path d="M14.9247 16.5453C14.9247 17.851 13.9683 18.9092 12.7885 18.9092C11.6088 18.9092 10.6523 17.851 10.6523 16.5453C10.6523 15.2399 11.6088 14.1818 12.7885 14.1818C13.9683 14.1818 14.9247 15.2399 14.9247 16.5453Z" fill="#AD6143"/>
<path d="M28.8374 12.9998C28.8374 14.3056 27.881 15.3638 26.7011 15.3638C25.5209 15.3638 24.5645 14.3056 24.5645 12.9998C24.5645 11.6945 25.5209 10.6364 26.7011 10.6364C27.881 10.6364 28.8374 11.6945 28.8374 12.9998Z" fill="#FDCF6D"/>
<path d="M32.0247 14.1818C32.0247 15.4871 31.0683 16.5453 29.8885 16.5453C28.7084 16.5453 27.752 15.4871 27.752 14.1818C27.752 12.8765 28.7084 11.8183 29.8885 11.8183C31.0683 11.8183 32.0247 12.8765 32.0247 14.1818Z" fill="#FDCF6D"/>
<path d="M21.355 17.7273C21.355 18.3799 20.877 18.9092 20.2871 18.9092C19.6972 18.9092 19.2188 18.3799 19.2188 17.7273C19.2188 17.0746 19.6972 16.5453 20.2871 16.5453C20.877 16.5453 21.355 17.0746 21.355 17.7273Z" fill="#FDCF6D"/>
<path d="M42.7162 26.0002C42.7162 27.3055 41.7598 28.3636 40.5796 28.3636C39.3998 28.3636 38.4434 27.3055 38.4434 26.0002C38.4434 24.6944 39.3998 23.6362 40.5796 23.6362C41.7598 23.6362 42.7162 24.6944 42.7162 26.0002Z" fill="#FDBC34"/>
<path d="M29.8997 30.7271C29.8997 32.0329 28.9433 33.0911 27.7631 33.0911C26.5834 33.0911 25.627 32.0329 25.627 30.7271C25.627 29.4218 26.5834 28.3636 27.7631 28.3636C28.9433 28.3636 29.8997 29.4218 29.8997 30.7271Z" fill="#FDCF6D"/>
<path d="M36.308 23.6362C36.308 24.9419 35.3516 26.0001 34.1714 26.0001C32.9916 26.0001 32.0352 24.9419 32.0352 23.6362C32.0352 22.3309 32.9916 21.2727 34.1714 21.2727C35.3516 21.2727 36.308 22.3309 36.308 23.6362Z" fill="#FDBC34"/>
<path d="M14.9466 29.5456C14.9466 30.1983 14.4687 30.7271 13.8788 30.7271C13.2889 30.7271 12.8105 30.1983 12.8105 29.5456C12.8105 28.893 13.2889 28.3636 13.8788 28.3636C14.4687 28.3636 14.9466 28.893 14.9466 29.5456Z" fill="#FDCF6D"/>
<path d="M21.333 26.0002C21.333 27.3055 20.3766 28.3636 19.1968 28.3636C18.017 28.3636 17.0605 27.3055 17.0605 26.0002C17.0605 24.6944 18.017 23.6362 19.1968 23.6362C20.3766 23.6362 21.333 24.6944 21.333 26.0002Z" fill="#FDCF6D"/>
<path d="M10.6752 11.8183C10.6752 13.1236 9.71877 14.1818 8.53858 14.1818C7.35878 14.1818 6.40234 13.1236 6.40234 11.8183C6.40234 10.5125 7.35878 9.45435 8.53858 9.45435C9.71877 9.45435 10.6752 10.5125 10.6752 11.8183Z" fill="#FDCF6D"/>
<path d="M14.9466 8.27284C14.9466 8.9255 14.4687 9.45437 13.8788 9.45437C13.2889 9.45437 12.8105 8.9255 12.8105 8.27284C12.8105 7.62019 13.2889 7.09088 13.8788 7.09088C14.4687 7.09088 14.9466 7.62019 14.9466 8.27284Z" fill="#FDCF6D"/>
</g>
<defs>
<clipPath id="clip0_307_2">
<rect width="47" height="52" fill="white" transform="translate(-0.00585938)"/>
</clipPath>
</defs>
</svg>
