<svg width="52" height="47" viewBox="0 0 52 47" fill="none" xmlns="http://www.w3.org/2000/svg">
<g clip-path="url(#clip0_307_3795)">
<path d="M51.8674 22.3758C51.8674 11.1978 40.2631 2.13654 25.9486 2.13654C11.6335 2.13654 0.0292969 11.1978 0.0292969 22.3758V24.6243C0.0292969 35.8023 11.6335 44.8635 25.9486 44.8635C40.2631 44.8635 51.8674 35.8023 51.8674 24.6243V22.3758ZM25.9486 29.1221C21.0067 29.1221 16.7902 26.7938 15.0407 23.5C16.7902 20.2063 21.0067 17.878 25.9486 17.878C30.8899 17.878 35.1065 20.2063 36.856 23.5C35.1065 26.7938 30.8899 29.1221 25.9486 29.1221Z" fill="#FDBC34"/>
<path d="M25.9486 44.8635C11.6564 44.8635 0.0292969 35.7842 0.0292969 24.6247V22.3754H4.74201V24.6247C4.74201 33.4286 14.2546 40.5911 25.9486 40.5911C37.6425 40.5911 47.1551 33.4286 47.1551 24.6247V22.3754H51.8674V24.6247C51.8674 35.7842 40.2403 44.8635 25.9486 44.8635Z" fill="#F59707"/>
<path d="M49.5112 14.9547C47.1551 12.8181 49.5112 10.6819 47.1551 8.54563C45.475 7.02237 42.5369 7.38461 40.0863 6.409C39.4296 6.00413 38.0485 4.56146 37.7297 4.27277C35.3735 2.13654 25.9486 2.13654 25.9486 2.13654H21.2358C16.5231 2.13654 14.167 4.27277 11.8109 4.27277C9.45429 4.27277 7.09815 6.409 7.09815 6.409C7.09815 6.409 4.74201 8.54563 4.79162 10.6819C4.79162 10.6819 4.74201 12.8181 2.38544 14.9547C0.0292969 17.091 0.0292969 19.2272 0.0292969 19.2272C0.0292969 19.2272 0.0292969 21.3638 2.38544 23.5C2.82249 23.8814 3.13745 24.363 3.29709 24.8934C3.32772 24.9717 3.34886 25.0534 3.38122 25.1309C3.691 26.7234 2.38544 28.3162 2.38544 29.9091C2.38544 32.0454 4.74201 32.0454 4.74201 32.0454C7.09815 32.0454 7.09815 34.182 7.09815 34.182C7.09815 36.3182 9.45429 36.3182 9.45429 36.3182C11.8109 36.3182 11.8109 38.4545 11.8109 38.4545C11.8109 40.5911 14.167 40.5911 14.167 40.5911C14.167 40.5911 16.5231 40.5911 16.5231 38.4545C16.5231 36.3182 18.8797 36.3182 18.8797 36.3182C21.2358 36.3182 21.2358 38.4545 21.2358 38.4545C21.2358 38.4545 21.2358 42.7273 25.9486 42.7273C30.6608 42.7273 30.6608 38.4545 30.6608 38.4545C30.6608 36.3182 33.0174 36.3182 33.0174 36.3182C33.0174 36.3182 35.3735 36.3182 35.3735 38.4545C35.3735 40.5911 37.7297 40.5911 37.7297 40.5911C40.0863 40.5911 40.0863 38.4545 40.0863 38.4545V36.3182C40.0863 34.182 42.4424 34.182 42.4424 34.182C42.4424 34.182 44.7985 34.182 44.7985 32.0454C44.7985 29.9091 47.1551 29.9091 47.1551 29.9091C49.5112 29.9091 49.5112 27.7729 49.5112 27.7729C49.5112 25.7129 51.8674 25.6363 51.8674 21.3638C51.8674 19.2272 51.8674 17.091 49.5112 14.9547ZM37.7297 18.1593C37.7297 22.2886 32.4552 25.6363 25.9486 25.6363C19.4419 25.6363 14.167 22.2886 14.167 18.1593C14.167 14.0296 19.4419 10.6819 25.9486 10.6819C32.4552 10.6819 37.7297 14.0296 37.7297 18.1593Z" fill="#993B17"/>
<path d="M25.9486 32.0453C15.3772 32.0453 7.09814 25.9452 7.09814 18.1592C7.09814 17.6358 7.13654 17.1132 7.21334 16.5945L9.54661 16.8781C9.48449 17.3029 9.45385 17.7309 9.45428 18.1592C9.45428 24.7475 16.7005 29.9091 25.9486 29.9091C35.1962 29.9091 42.4424 24.7475 42.4424 18.1592H44.7985C44.7985 25.9452 36.5195 32.0453 25.9486 32.0453Z" fill="#AD6143"/>
<path d="M25.9484 32.0453C21.3094 32.0453 16.8819 30.8436 13.4834 28.6593L14.8455 26.9154C17.851 28.8451 21.7927 29.9091 25.9484 29.9091C29.7658 29.9091 33.3231 29.0434 36.2363 27.4056L37.4788 29.2206C34.1908 31.0689 30.2029 32.0453 25.9484 32.0453Z" fill="#C28A73"/>
<path d="M44.0116 11.6958C43.7541 11.5874 42.7371 11.4184 42.3549 11.3559C41.0894 11.147 39.6833 10.9154 38.1901 10.3208L37.4377 9.94331C36.5631 9.40505 35.6981 8.57692 34.6578 7.55242L34.5198 7.41042C33.7514 7.03919 30.1363 6.4133 25.946 6.409H21.2359C19.4087 6.409 18.1592 6.88076 16.7096 7.42528C15.3082 7.95103 13.7231 8.54562 11.8109 8.54562C11.3126 8.78503 10.8505 9.08076 10.4346 9.42578C9.93325 9.89519 9.53502 10.586 9.50266 10.784L7.14868 10.7507C7.14868 9.77862 8.11771 8.52254 8.76877 7.91543C9.34173 7.41042 10.803 6.409 11.8109 6.409C13.2558 6.409 14.4937 5.94389 15.8053 5.45139C17.3473 4.87166 18.9393 4.27277 21.2359 4.27277H25.9486C29.131 4.27707 34.5224 4.74218 35.9949 5.73304L36.4069 6.11914C37.2974 6.99538 38.0982 7.76718 38.7609 8.17635L39.1406 8.36607C40.3784 8.85857 41.6369 9.06707 42.7484 9.24857C44.4258 9.52592 45.0842 9.68865 45.4889 10.056L44.6562 10.8113L44.0116 11.6958Z" fill="#AD6143"/>
<path d="M38.1879 10.3188L37.4376 9.94331C36.563 9.40504 35.698 8.57692 34.6578 7.55242L34.5197 7.41042C33.7513 7.03919 30.1388 6.4133 25.946 6.409H21.2358V4.27277H25.9486C29.1283 4.27707 34.5223 4.74218 35.9948 5.73304L36.4069 6.11913C37.2974 6.99538 38.0981 7.76717 38.7608 8.17635L39.1405 8.36607L38.1879 10.3188Z" fill="#C28A73"/>
<path d="M25.9486 42.7273C22.7317 42.7273 21.2635 40.5848 21.2358 38.4607C21.2358 38.4274 21.2082 36.3182 18.8797 36.3182C18.8564 36.3182 16.5231 36.3432 16.5231 38.4544C16.5231 39.7187 15.605 40.5574 14.183 40.591C12.7402 40.5574 11.8109 39.698 11.8109 38.4544C11.8109 38.4337 11.7832 36.3182 9.45429 36.3182C8.01152 36.2849 7.09815 35.4462 7.09815 34.182C7.09815 34.1608 7.07053 32.0453 4.74201 32.0453C3.29924 32.0121 2.38544 31.1734 2.38544 29.9091C2.38544 29.1893 2.6525 28.4676 2.90792 27.7705C3.22762 26.9005 3.55207 26.0079 3.38208 25.1316L3.32686 24.9771C3.16765 24.4162 2.84191 23.9053 2.38544 23.5C0.162614 21.4846 0.0362 19.4693 0.0292969 19.2459C0.0478492 18.8058 0.238549 16.9012 2.38544 14.9547C4.69584 12.8599 4.79033 10.7695 4.79249 10.6799L7.14863 10.7256C7.14172 11.0323 6.99676 13.7944 4.05169 16.465C2.47302 17.8964 2.38544 19.244 2.38544 19.2565C2.38803 19.2565 2.47777 20.5626 4.05169 21.9897C4.7968 22.6535 5.33093 23.4875 5.598 24.4032L5.67609 24.6559C5.97509 26.1682 5.51732 27.4243 5.14929 28.432C4.94651 28.9828 4.74201 29.5355 4.74201 29.9091C7.80227 29.9091 9.45429 32.1103 9.45429 34.182C12.515 34.182 14.167 36.3827 14.167 38.4544C14.167 35.6798 16.5948 34.182 18.8797 34.182C21.94 34.182 23.592 36.3808 23.592 38.4482C23.6015 39.2411 23.9212 40.591 25.9486 40.591C27.9733 40.591 28.293 39.2454 28.3047 38.4419C28.3047 35.6798 30.7325 34.182 33.0174 34.182C35.3024 34.182 37.7297 35.6798 37.7297 38.4544V36.3182C37.7297 33.5436 40.1505 32.0453 42.4286 32.0453C42.4424 29.2707 44.8702 27.7729 47.1551 27.7729C47.1551 26.2602 47.8981 25.2963 48.4391 24.5953C49.0164 23.8485 49.5112 23.2101 49.5112 21.3638C49.5112 19.3961 49.5112 17.9754 47.8454 16.465C45.9768 14.7708 45.9768 12.9538 45.9768 11.7501C45.9768 10.7777 45.9561 10.4796 45.4888 10.0559L47.1551 8.54559C48.333 9.61351 48.333 10.7006 48.333 11.7501C48.333 12.8494 48.333 13.8864 49.5112 14.9547C51.8674 17.0909 51.8674 19.2627 51.8674 21.3638C51.8674 23.8838 51.039 24.954 50.3741 25.8138C49.9095 26.4166 49.5112 26.9318 49.5112 27.7729C49.4746 29.081 48.5495 29.9091 47.1551 29.9091C47.1318 29.9091 44.7985 29.9341 44.7985 32.0453C44.7985 33.3096 43.8804 34.1483 42.4584 34.182C42.4057 34.182 40.0863 34.207 40.0863 36.3182V38.4544C40.0491 39.7625 39.1241 40.591 37.7297 40.591C36.2869 40.5574 35.3735 39.7187 35.3735 38.4544C35.3735 36.3432 33.0403 36.3182 33.0174 36.3182C32.9941 36.3182 30.6608 36.3432 30.6608 38.4544C30.6332 40.5867 29.1654 42.7273 25.9486 42.7273Z" fill="#8B2800"/>
<path d="M14.1668 29.9092C14.1668 31.089 13.1119 32.0454 11.8107 32.0454C10.509 32.0454 9.4541 31.089 9.4541 29.9092C9.4541 28.7294 10.509 27.7729 11.8107 27.7729C13.1119 27.7729 14.1668 28.7294 14.1668 29.9092Z" fill="#7D1A00"/>
<path d="M18.8795 8.54562C18.8795 9.72542 17.8246 10.6819 16.5229 10.6819C15.2216 10.6819 14.1667 9.72542 14.1667 8.54562C14.1667 7.36543 15.2216 6.409 16.5229 6.409C17.8246 6.409 18.8795 7.36543 18.8795 8.54562Z" fill="#7D1A00"/>
<path d="M9.45422 17.0909C9.45422 18.2707 8.39933 19.2272 7.09808 19.2272C5.79683 19.2272 4.74194 18.2707 4.74194 17.0909C4.74194 15.9111 5.79683 14.9547 7.09808 14.9547C8.39933 14.9547 9.45422 15.9111 9.45422 17.0909Z" fill="#7D1A00"/>
<path d="M47.1551 25.6362C47.1551 26.8164 46.1002 27.7729 44.7985 27.7729C43.4973 27.7729 42.4424 26.8164 42.4424 25.6362C42.4424 24.4564 43.4973 23.5 44.7985 23.5C46.1002 23.5 47.1551 24.4564 47.1551 25.6362Z" fill="#7D1A00"/>
<path d="M35.3736 32.0454C35.3736 33.2256 34.3187 34.182 33.0175 34.182C31.7158 34.182 30.6609 33.2256 30.6609 32.0454C30.6609 30.8656 31.7158 29.9092 33.0175 29.9092C34.3187 29.9092 35.3736 30.8656 35.3736 32.0454Z" fill="#7D1A00"/>
<path d="M23.5919 29.9092C23.5919 31.089 22.537 32.0454 21.2358 32.0454C19.9345 32.0454 18.8796 31.089 18.8796 29.9092C18.8796 28.7294 19.9345 27.7729 21.2358 27.7729C22.537 27.7729 23.5919 28.7294 23.5919 29.9092Z" fill="#7D1A00"/>
<path d="M28.3045 4.27277C28.3045 5.45256 27.2496 6.409 25.9484 6.409C24.6467 6.409 23.5918 5.45256 23.5918 4.27277C23.5918 3.09297 24.6467 2.13654 25.9484 2.13654C27.2496 2.13654 28.3045 3.09297 28.3045 4.27277Z" fill="#7D1A00"/>
<path d="M40.0862 6.409C40.0862 7.58919 39.0314 8.54562 37.7297 8.54562C36.4284 8.54562 35.3735 7.58919 35.3735 6.409C35.3735 5.2292 36.4284 4.27277 37.7297 4.27277C39.0314 4.27277 40.0862 5.2292 40.0862 6.409Z" fill="#7D1A00"/>
<path d="M47.1551 14.9547C47.1551 16.1345 46.1002 17.0909 44.7985 17.0909C43.4973 17.0909 42.4424 16.1345 42.4424 14.9547C42.4424 13.7745 43.4973 12.8181 44.7985 12.8181C46.1002 12.8181 47.1551 13.7745 47.1551 14.9547Z" fill="#7D1A00"/>
<path d="M25.9485 27.7729C18.1522 27.7729 11.8108 23.4606 11.8108 18.1593H14.1669C14.1669 22.2816 19.4526 25.6363 25.9485 25.6363C32.4444 25.6363 37.7296 22.2816 37.7296 18.1593H40.0862C40.0862 23.4606 33.7443 27.7729 25.9485 27.7729Z" fill="#8B2800"/>
<path d="M37.7297 18.1592H33.0174C33.0174 16.8823 30.1983 14.9546 25.9486 14.9546C21.6984 14.9546 18.8797 16.8823 18.8797 18.1592H14.167C14.167 14.0365 19.4527 10.6818 25.9486 10.6818C32.4444 10.6818 37.7297 14.0365 37.7297 18.1592Z" fill="#F59707"/>
</g>
<defs>
<clipPath id="clip0_307_3795">
<rect width="51.8382" height="47" fill="white" transform="translate(0.0292969)"/>
</clipPath>
</defs>
</svg>
