<svg width="47" height="47" viewBox="0 0 47 47" fill="none" xmlns="http://www.w3.org/2000/svg">
<g clip-path="url(#clip0_307_3704)">
<path d="M5.30713 34.1816C5.30713 35.3618 4.3507 36.3183 3.1709 36.3183C1.9911 36.3183 1.03467 35.3618 1.03467 34.1816C1.03467 33.0018 1.9911 32.0454 3.1709 32.0454C4.3507 32.0454 5.30713 33.0018 5.30713 34.1816Z" fill="#FDBC34"/>
<path d="M20.2622 12.8182L26.6713 6.40909C28.8075 4.27285 28.8075 2.13623 28.8075 2.13623C28.8075 2.13623 28.8075 0 30.9438 0C33.0804 0 33.0804 2.13623 35.2166 2.13623C37.3528 2.13623 37.3528 0 39.4895 0C41.6257 0 41.6257 2.13623 41.6257 4.27285C41.6257 6.40909 43.7619 6.40909 43.7619 6.40909C45.8985 6.40909 45.8985 8.54532 45.8985 8.54532C45.8985 10.6819 43.7619 10.6819 43.7619 12.8182C43.7619 14.9544 45.8985 14.9544 45.8985 17.091C45.8985 19.2273 43.7619 19.2273 41.6257 21.3635L35.2166 27.7726L20.2622 12.8182Z" fill="#B99E69"/>
<path d="M35.9717 27.0176L34.4609 25.5069L40.115 19.8532C41.1059 18.8623 42.103 18.2446 42.8314 17.7959C43.0857 17.6375 43.6803 17.2702 43.7804 17.1348C43.7616 16.924 43.7616 16.9072 43.3196 16.4651C42.6851 15.8306 41.6254 14.7709 41.6254 12.8182C41.6254 10.8654 42.6851 9.8057 43.3196 9.1712L44.8299 10.6819C44.3042 11.2077 43.7616 11.7499 43.7616 12.8182C43.7616 13.8865 44.3042 14.4287 44.8299 14.9544C45.3788 15.5032 45.8982 16.0227 45.8982 17.091C45.8982 18.4117 45.0822 18.9163 43.9537 19.6134C43.2445 20.0515 42.441 20.5479 41.6254 21.3635L35.9717 27.0176Z" fill="#A37F39"/>
<path d="M43.7617 8.54529C41.69 8.54529 39.4893 7.04746 39.4893 4.27283H41.6255C41.6255 6.38402 43.741 6.40906 43.7617 6.40906V8.54529Z" fill="#A37F39"/>
<path d="M35.2167 4.27285C33.2639 4.27285 32.2042 3.21276 31.5697 2.57866C31.1277 2.13623 31.1109 2.13623 30.9438 2.13623V0C32.0122 0 32.5316 0.519486 33.0805 1.06831C33.6062 1.59406 34.1484 2.13623 35.2167 2.13623V4.27285Z" fill="#A37F39"/>
<path d="M24.5347 14.9544L33.0804 6.40906C33.0804 6.40906 35.2166 4.27283 37.3528 4.27283C39.4895 4.27283 41.6257 6.40906 41.6257 8.54529C41.6257 10.6819 43.7619 10.6819 43.7619 12.8182C43.7619 14.9544 39.4895 19.2272 39.4895 19.2272L35.2166 23.5001L24.5347 14.9544Z" fill="#C5AF83"/>
<path d="M20.2622 15.0596L29.4354 5.79608C30.4008 4.82126 31.7159 4.27283 33.0878 4.27283C35.2166 4.27283 37.3528 6.40906 37.3528 8.54529C37.3528 10.6819 39.4895 10.6819 39.4895 10.6819C43.7619 10.6819 43.7619 13.5841 43.7619 14.9469V14.9618C43.7619 16.3251 43.2205 17.6324 42.2567 18.5963L33.0804 27.7725L20.2622 15.0596Z" fill="#AF0A00"/>
<path d="M30.9438 6.40912C33.9652 6.40912 35.2166 10.682 35.2166 10.682C35.2166 12.8182 37.3529 12.8182 37.3529 12.8182C38.767 12.8182 41.6257 12.8182 41.6257 17.0911C41.6257 18.3741 40.9341 19.9189 39.4895 21.3635L37.3529 23.5001L24.5347 10.682C24.5347 10.682 24.5558 10.7027 26.692 8.56647C28.8283 6.42985 30.9438 6.40912 30.9438 6.40912Z" fill="#C11107"/>
<path d="M28.8283 6.40912C28.8283 8.54535 30.9438 10.682 33.0804 10.682C35.2166 10.682 35.2166 12.8182 35.2166 12.8182C35.2166 14.9544 37.3529 17.0911 39.4895 17.0911C41.6257 17.0911 41.6257 19.2273 41.6257 19.2273L37.3529 23.5001L24.5347 10.682L28.8283 6.40912Z" fill="#C82E25"/>
<path d="M13.1198 46.9999C6.44507 46.9999 1.03467 41.5895 1.03467 34.9148C1.03467 31.7098 2.30796 28.6359 4.57406 26.3694L24.5344 6.40912L27.0375 8.91189C30.9063 12.781 33.0801 18.0283 33.0801 23.5001C33.0801 28.9716 33.0429 32.0826 29.1738 35.9518L21.6651 43.4605C19.3986 45.7266 16.3247 46.9999 13.1198 46.9999Z" fill="#FDBC34"/>
<path d="M31.7478 16.2688C31.4153 15.3675 31.0202 14.4901 30.5653 13.644C28.6012 13.101 26.5729 12.8233 24.5348 12.8182C21.9757 12.8182 19.7538 12.8366 17.6446 13.2993L12.084 18.8599C15.9895 14.9544 19.2066 14.9544 24.5348 14.9544C26.9985 14.9579 29.4414 15.4031 31.7478 16.2688Z" fill="#FDAB00"/>
<path d="M1.03467 34.9148C1.03467 41.5895 6.44507 46.9999 13.1198 46.9999C16.3247 46.9999 19.3986 45.7266 21.6651 43.4605L41.6254 23.5002L39.1226 20.997C35.2535 17.1283 30.0062 14.9545 24.5344 14.9545C19.063 14.9545 15.9519 14.9916 12.0828 18.8608L4.57406 26.3695C2.30796 28.636 1.03467 31.7099 1.03467 34.9148Z" fill="#FDCF6D"/>
<path d="M13.1206 46.9999C6.44898 46.992 1.04249 41.5855 1.03467 34.914H5.30713C5.30713 38.0743 7.21061 40.9233 10.1304 42.1324C13.0497 43.3419 16.4104 42.6734 18.6448 40.4386L35.5711 23.5103C32.5618 20.7455 28.621 19.2159 24.5344 19.2273V14.9544C30.0089 14.9388 35.2617 17.1145 39.1219 20.9966L41.6254 23.5001L21.6659 43.4597C19.4045 45.7336 16.3274 47.0085 13.1206 46.9999Z" fill="#FDBC34"/>
<path d="M30.9434 29.9092C30.9434 31.089 29.9869 32.0454 28.8071 32.0454C27.6273 32.0454 26.6709 31.089 26.6709 29.9092C26.6709 28.729 27.6273 27.7726 28.8071 27.7726C29.9869 27.7726 30.9434 28.729 30.9434 29.9092Z" fill="#FDBC34"/>
<path d="M26.6713 19.2273C26.6713 20.4071 25.7149 21.3635 24.5347 21.3635C23.3549 21.3635 22.3984 20.4071 22.3984 19.2273C22.3984 18.0475 23.3549 17.0911 24.5347 17.0911C25.7149 17.0911 26.6713 18.0475 26.6713 19.2273Z" fill="#FDBC34"/>
<path d="M15.9888 35.2499C15.9888 35.8398 15.5104 36.3183 14.9205 36.3183C14.3306 36.3183 13.8525 35.8398 13.8525 35.2499C13.8525 34.6601 14.3306 34.1816 14.9205 34.1816C15.5104 34.1816 15.9888 34.6601 15.9888 35.2499Z" fill="#FDBC34"/>
<path d="M20.2616 29.9092C20.2616 31.089 19.3052 32.0454 18.125 32.0454C16.9452 32.0454 15.9888 31.089 15.9888 29.9092C15.9888 28.729 16.9452 27.7726 18.125 27.7726C19.3052 27.7726 20.2616 28.729 20.2616 29.9092Z" fill="#FDBC34"/>
<path d="M15.9888 24.568C15.9888 25.1579 15.5104 25.6363 14.9205 25.6363C14.3306 25.6363 13.8525 25.1579 13.8525 24.568C13.8525 23.9781 14.3306 23.5001 14.9205 23.5001C15.5104 23.5001 15.9888 23.9781 15.9888 24.568Z" fill="#FDBC34"/>
<path d="M30.9434 22.4318C30.9434 23.0217 30.4653 23.5001 29.8754 23.5001C29.2855 23.5001 28.8071 23.0217 28.8071 22.4318C28.8071 21.8419 29.2855 21.3635 29.8754 21.3635C30.4653 21.3635 30.9434 21.8419 30.9434 22.4318Z" fill="#FDBC34"/>
<path d="M26.6713 12.8182C26.6713 13.998 25.7149 14.9544 24.5347 14.9544C23.3549 14.9544 22.3984 13.998 22.3984 12.8182C22.3984 11.6384 23.3549 10.6819 24.5347 10.6819C25.7149 10.6819 26.6713 11.6384 26.6713 12.8182Z" fill="#FDAB00"/>
<path d="M24.5347 9.6136C24.5347 10.2035 24.0566 10.6819 23.4667 10.6819C22.8768 10.6819 22.3984 10.2035 22.3984 9.6136C22.3984 9.0237 22.8768 8.54529 23.4667 8.54529C24.0566 8.54529 24.5347 9.0237 24.5347 9.6136Z" fill="#FDAB00"/>
<path d="M24.5347 33.1137C24.5347 33.7036 24.0566 34.1816 23.4667 34.1816C22.8768 34.1816 22.3984 33.7036 22.3984 33.1137C22.3984 32.5238 22.8768 32.0454 23.4667 32.0454C24.0566 32.0454 24.5347 32.5238 24.5347 33.1137Z" fill="#FDBC34"/>
<path d="M15.9896 42.7273C15.9896 43.9071 15.0332 44.8635 13.8534 44.8635C12.6736 44.8635 11.7168 43.9071 11.7168 42.7273C11.7168 41.5471 12.6736 40.5907 13.8534 40.5907C15.0332 40.5907 15.9896 41.5471 15.9896 42.7273Z" fill="#FDBC34"/>
<path d="M7.44376 28.8409C7.44376 29.4308 6.96534 29.9092 6.37544 29.9092C5.78554 29.9092 5.30713 29.4308 5.30713 28.8409C5.30713 28.251 5.78554 27.7726 6.37544 27.7726C6.96534 27.7726 7.44376 28.251 7.44376 28.8409Z" fill="#FDBC34"/>
</g>
<defs>
<clipPath id="clip0_307_3704">
<rect width="47" height="47" fill="white"/>
</clipPath>
</defs>
</svg>
