<svg width="47" height="47" viewBox="0 0 47 47" fill="none" xmlns="http://www.w3.org/2000/svg">
<g clip-path="url(#clip0_307_3659)">
<path d="M0.0273438 46.9999L47.0272 32.0455C47.0272 14.3473 32.6799 0 14.9818 0L0.0273438 46.9999Z" fill="#F59707"/>
<path d="M24.6218 21.3616C23.2049 21.3659 21.8452 20.8034 20.8457 19.7988L22.3561 18.2885C23.566 19.4964 25.6815 19.4964 26.8875 18.2885C28.1365 17.0363 28.1365 15.0092 26.8875 13.7571L28.3978 12.2467C29.9258 13.7735 30.3831 16.0705 29.5561 18.0663C28.7296 20.0617 26.7819 21.3624 24.6218 21.3616Z" fill="#EF7F00"/>
<path d="M2.68359 41.6653L44.2261 28.4705L45.5197 32.543L3.97723 45.7379L2.68359 41.6653Z" fill="#E76400"/>
<path d="M38.4684 32.0454C38.4684 19.0876 27.9261 8.54529 14.9683 8.54529C14.0834 8.54412 13.2212 8.26599 12.5023 7.74963L11.1836 11.895C12.356 12.4935 13.6519 12.8095 14.9683 12.8182C25.5708 12.8182 34.1955 21.4441 34.1955 32.0454C34.2037 33.3617 34.5202 34.6577 35.1187 35.8301L39.2637 34.5114C38.7477 33.7924 38.4696 32.9303 38.4684 32.0454Z" fill="#E76400"/>
<path d="M14.9916 0C12.632 0 10.7188 1.91287 10.7188 4.27286C10.7188 6.63245 12.632 8.54532 14.9916 8.54532C27.9702 8.54532 38.4917 19.0669 38.4917 32.0455C38.4917 34.405 40.4046 36.3183 42.7642 36.3183C45.1242 36.3183 47.0371 34.405 47.0371 32.0455C47.0371 14.3473 32.6898 0 14.9916 0Z" fill="#FDCF6D"/>
<path d="M47.0216 32.0454C47.0216 34.405 45.1088 36.3183 42.7489 36.3183C40.3894 36.3183 38.4766 34.405 38.4766 32.0454C38.4766 29.6858 40.3894 27.7726 42.7489 27.7726C45.1088 27.7726 47.0216 29.6858 47.0216 32.0454Z" fill="#FDBC34"/>
<path d="M44.8744 32.0455C44.8744 33.2253 43.918 34.1818 42.7378 34.1818C41.558 34.1818 40.6016 33.2253 40.6016 32.0455C40.6016 30.8657 41.558 29.9093 42.7378 29.9093C43.918 29.9093 44.8744 30.8657 44.8744 32.0455Z" fill="#FDAB00"/>
<path d="M13.9062 17.091V12.8181C14.4965 12.8185 14.9757 12.3401 14.9757 11.7498C14.9757 11.1595 14.4965 10.6811 13.9062 10.6819V6.40906C16.8561 6.40906 19.2474 8.80034 19.2474 11.7498C19.2474 14.6997 16.8561 17.091 13.9062 17.091Z" fill="#C82E25"/>
<path d="M9.65175 32.0455C6.70184 32.0455 4.31055 29.6542 4.31055 26.7047C4.31055 23.7548 6.70184 21.3635 9.65175 21.3635V25.6364C9.06185 25.6364 8.58343 26.1148 8.58343 26.7047C8.58343 27.2946 9.06185 27.7726 9.65175 27.7726V32.0455Z" fill="#C82E25"/>
<path d="M31.034 27.7725C28.0858 27.7694 25.6965 25.3801 25.6934 22.4318H29.9657C29.9653 23.0221 30.4437 23.5009 31.034 23.5009C31.6243 23.5009 32.1027 23.0221 32.1023 22.4318H36.3747C36.3715 25.3801 33.9823 27.7694 31.034 27.7725Z" fill="#C82E25"/>
<path d="M17.1427 32.0434C15.4427 32.0485 13.8107 31.3729 12.6113 30.1677L14.1221 28.6574C15.7325 30.2679 18.5533 30.2679 20.1638 28.6574C21.8302 26.9878 21.8302 24.2848 20.1638 22.6152L21.6741 21.1049C23.5076 22.9371 24.056 25.6938 23.064 28.0886C22.072 30.483 19.7347 32.0442 17.1427 32.0434Z" fill="#EF7F00"/>
<path d="M21.3891 25.6365C21.3891 27.9961 19.4762 29.9094 17.1162 29.9094C14.7566 29.9094 12.8438 27.9961 12.8438 25.6365C12.8438 23.2769 14.7566 21.3636 17.1162 21.3636C19.4762 21.3636 21.3891 23.2769 21.3891 25.6365Z" fill="#8B2800"/>
<path d="M27.8192 33.1138C27.8192 34.8835 26.3844 36.3184 24.6147 36.3184C22.845 36.3184 21.4102 34.8835 21.4102 33.1138C21.4102 31.3438 22.845 29.9093 24.6147 29.9093C26.3844 29.9093 27.8192 31.3438 27.8192 33.1138Z" fill="#8B2800"/>
<path d="M8.58344 38.4546C8.58344 39.6344 7.627 40.5908 6.44719 40.5908C5.26699 40.5908 4.31055 39.6344 4.31055 38.4546C4.31055 37.2748 5.26699 36.3184 6.44719 36.3184C7.627 36.3184 8.58344 37.2748 8.58344 38.4546Z" fill="#8B2800"/>
<path d="M27.8192 16.0228C27.8192 17.7925 26.3844 19.2273 24.6147 19.2273C22.845 19.2273 21.4102 17.7925 21.4102 16.0228C21.4102 14.2531 22.845 12.8182 24.6147 12.8182C26.3844 12.8182 27.8192 14.2531 27.8192 16.0228Z" fill="#8B2800"/>
<path d="M38.5292 24.0184C38.5104 23.9453 36.4219 16.0935 28.6382 10.254C23.0553 6.06794 13.865 5.49526 13.7734 5.49017L14.0195 1.22357C14.447 1.24861 24.5989 1.88388 31.2001 6.83661C40.2484 13.6224 42.5787 22.6027 42.6726 22.9814L38.5292 24.0184Z" fill="#FEE3AA"/>
</g>
<defs>
<clipPath id="clip0_307_3659">
<rect width="47" height="47" fill="white" transform="translate(-0.00585938)"/>
</clipPath>
</defs>
</svg>
