<svg width="47" height="47" viewBox="0 0 47 47" fill="none" xmlns="http://www.w3.org/2000/svg">
<path d="M46.9999 19.2272C46.9999 10.9682 38.4545 2.13654 23.5001 2.13654C6.40909 2.13654 0 13.1044 0 21.3638V27.7729C0 36.0319 8.38494 44.8635 21.3635 44.8635C38.4545 44.8635 46.9999 33.8956 46.9999 25.6363V19.2272ZM30.3513 20.2955C31.666 19.6387 33.3665 19.2272 35.25 19.2272C37.1335 19.2272 38.834 19.6387 40.1487 20.2955C38.834 20.9523 37.1335 21.3638 35.25 21.3638C33.3665 21.3638 31.666 20.9523 30.3513 20.2955Z" fill="#3B292A"/>
<path d="M30.3513 20.2955C31.666 19.6387 33.3665 19.2272 35.25 19.2272C37.1335 19.2272 38.834 19.6387 40.1487 20.2955C38.834 20.9523 37.1335 21.3638 35.25 21.3638H46.9999V19.2272C46.9999 10.9682 38.4545 2.13654 23.5001 2.13654C6.40909 2.13654 0 13.1044 0 21.3638H35.25C33.3665 21.3638 31.666 20.9523 30.3513 20.2955Z" fill="#7D1A00"/>
<path d="M23.5001 2.13654C6.40909 2.13654 0 13.1044 0 21.3638C0 29.6228 8.38494 38.4545 21.3635 38.4545C38.4545 38.4545 46.9999 27.4866 46.9999 19.2272C46.9999 10.9682 38.4545 2.13654 23.5001 2.13654ZM35.25 21.3638C31.1203 21.3638 27.7726 19.4506 27.7726 17.091C27.7726 14.731 31.1203 12.8181 35.25 12.8181C39.3797 12.8181 42.7274 14.731 42.7274 17.091C42.7274 19.4506 39.3797 21.3638 35.25 21.3638Z" fill="#CD3E36"/>
<path d="M2.13628 19.2271H1.06836V17.0909H2.13628C2.51612 17.047 3.85747 16.2604 4.65861 15.791C6.92667 14.4641 9.73886 12.818 12.8182 12.818C15.2197 12.818 17.5206 13.3938 19.7449 13.9508C21.8228 14.4696 23.7693 14.9546 25.6364 14.9546H26.7047V17.0909H25.6364C23.5064 17.0909 21.4367 16.5745 19.2461 16.028C17.1263 15.498 14.9568 14.9546 12.8182 14.9546C10.319 14.9546 7.78414 16.438 5.74765 17.6303C4.05384 18.6223 2.97927 19.2271 2.13628 19.2271Z" fill="#C82E25"/>
<path d="M4.27285 21.3638H2.13623C2.13623 7.84463 16.1103 4.27277 23.5001 4.27277V6.409C16.8489 6.409 4.27285 9.53453 4.27285 21.3638Z" fill="#D96C66"/>
<path d="M21.3635 38.4545C8.58522 38.4545 0 29.6169 0 21.3638H2.13623C2.13623 28.5854 9.86203 36.3182 21.3635 36.3182C37.3948 36.3182 44.8636 26.1194 44.8636 19.2272H46.9999C46.9999 26.9811 38.8532 38.4545 21.3635 38.4545Z" fill="#7D1A00"/>
<path d="M12.6681 34.1713C4.5961 33.0185 2.27211 25.1941 2.17822 24.8612L4.23113 24.2717C4.3125 24.5502 6.2903 31.1025 12.9685 32.0558L12.6681 34.1713Z" fill="#ECB8B5"/>
<path d="M8.54541 20.2974L6.40918 20.2954C6.40918 20.1816 6.53866 8.83857 17.7628 4.349L18.5557 6.33306C8.70188 10.2738 8.54776 19.8906 8.54541 20.2974Z" fill="#ECB8B5"/>
<path d="M27.7728 36.3182C12.0172 36.3182 10.6966 22.6582 10.686 22.5205L12.8141 22.3409C12.8579 22.824 14.0158 34.1819 27.7728 34.1819V36.3182Z" fill="#ECB8B5"/>
<path d="M15.1567 31.7387C11.1655 27.778 10.7024 22.7333 10.6855 22.5205L12.8136 22.3402C12.8179 22.3848 13.2478 26.8329 16.6628 30.2221L15.1567 31.7387Z" fill="#D96C66"/>
<path d="M36.3183 27.7729C24.827 27.7729 23.5208 18.3865 23.5083 18.2915L25.6281 18.0223C25.6696 18.3333 26.7524 25.6363 36.3183 25.6363V27.7729Z" fill="#ECB8B5"/>
<path d="M28.0229 25.4434C24.0986 22.6719 23.5314 18.4691 23.5083 18.2915L25.6281 18.0223C25.632 18.0568 26.1226 21.4866 29.2539 23.6991L28.0229 25.4434Z" fill="#D96C66"/>
<path d="M32.0455 32.0454C19.5633 32.0454 17.1349 20.6198 17.1118 20.5052L19.2066 20.0839C19.2879 20.4844 21.3428 29.9091 32.0455 29.9091V32.0454Z" fill="#ECB8B5"/>
<path d="M21.3178 27.9638C17.9798 24.6975 17.1451 20.6742 17.1118 20.5052L19.2066 20.0839C19.2128 20.1191 19.9616 23.6471 22.8117 26.4366L21.3178 27.9638Z" fill="#D96C66"/>
<path d="M17.087 18.2477L14.959 18.0705C14.9695 17.9328 16.2902 4.27277 32.0457 4.27277V6.409C18.2324 6.409 17.1289 17.765 17.087 18.2477Z" fill="#ECB8B5"/>
<path d="M23.4667 18.4209L21.395 17.9003C21.4201 17.8064 23.8422 8.54559 33.114 8.54559C39.7734 8.54559 42.1643 10.7444 42.4147 10.9948L40.9039 12.5051C40.8977 12.5 38.8823 10.6818 33.114 10.6818C25.5282 10.6818 23.5481 18.1049 23.4667 18.4209Z" fill="#ECB8B5"/>
<path d="M12.8182 25.6363C10.3315 25.6363 8.45579 25.0104 6.80149 24.4576C5.2575 23.9432 3.92436 23.5 2.13628 23.5H1.06836V21.3638H2.13628C4.2729 21.3638 5.90021 21.906 7.4751 22.4309C9.12354 22.9805 10.6796 23.5 12.8182 23.5C14.9545 23.5 17.1263 22.4141 19.2273 21.3638C21.4242 20.2654 23.5002 19.2272 25.6364 19.2272H26.7047V21.3638H25.6364C24.0048 21.3638 22.1483 22.2921 20.183 23.2747C17.8609 24.4357 15.4595 25.6363 12.8182 25.6363Z" fill="#D96C66"/>
<path d="M2.13623 19.2272C4.27285 19.2272 8.54532 14.9547 12.8182 14.9547C17.091 14.9547 21.3635 17.0909 25.6364 17.0909V19.2272C21.3635 19.2272 17.091 23.5 12.8182 23.5C8.54532 23.5 6.40909 21.3638 2.13623 21.3638V19.2272Z" fill="#ECB8B5"/>
<path d="M12.818 23.5C10.6818 23.5 9.05451 22.9574 7.47923 22.4329C6.08976 21.9697 4.7797 21.5328 3.12109 21.4021L3.28774 19.2721C5.20921 19.4235 6.70508 19.9231 8.15323 20.4062C9.69682 20.9202 11.03 21.3638 12.818 21.3638C14.4497 21.3638 16.3062 20.4351 18.2715 19.4525C20.2242 18.4761 22.2439 17.4665 24.4263 17.1735L24.7099 19.2909C22.8823 19.5362 21.0234 20.4656 19.2271 21.3638C17.0303 22.4622 14.9543 23.5 12.818 23.5Z" fill="#E59B96"/>
<path d="M44.8635 17.0909H42.7272C42.7272 14.7344 39.3725 12.818 35.2499 12.818C31.1272 12.818 27.7725 14.7344 27.7725 17.0909H25.6362C25.6362 13.4368 29.769 10.6818 35.2499 10.6818C40.7307 10.6818 44.8635 13.4368 44.8635 17.0909Z" fill="#C11107"/>
</svg>
