<svg width="11" height="11" viewBox="0 0 11 11" fill="none" xmlns="http://www.w3.org/2000/svg">
<path d="M10.8146 4.08249C10.7337 3.82968 10.4921 3.65592 10.1518 3.60572L7.45279 3.20734L6.24576 0.723356C6.09354 0.410124 5.85617 0.230469 5.59449 0.230469C5.33281 0.230469 5.09544 0.410124 4.94324 0.723356L3.73625 3.20732L1.03721 3.6057C0.696845 3.6559 0.455276 3.82968 0.374398 4.08245C0.29354 4.33523 0.388421 4.62002 0.634664 4.86383L2.5877 6.79731L2.12664 9.52757C2.06602 9.88669 2.16898 10.1015 2.26605 10.2184C2.37959 10.3551 2.54522 10.4305 2.73244 10.4305C2.87398 10.4305 3.02473 10.3883 3.1804 10.3052L5.59449 9.0161L8.00858 10.3051C8.16429 10.3883 8.31502 10.4304 8.45658 10.4304H8.45662C8.64386 10.4304 8.80949 10.3551 8.92303 10.2183C9.02009 10.1015 9.12306 9.88667 9.06242 9.52752L8.6013 6.79733L10.5543 4.86387C10.8006 4.62006 10.8955 4.33525 10.8146 4.08249Z" fill="#C9C9C9"/>
</svg>
