<svg width="11" height="11" viewBox="0 0 11 11" fill="none" xmlns="http://www.w3.org/2000/svg">
<path d="M10.9489 4.08249C10.868 3.82968 10.6264 3.65592 10.2861 3.60572L7.58706 3.20734L6.38004 0.723356C6.22781 0.410124 5.99045 0.230469 5.72877 0.230469C5.46709 0.230469 5.22972 0.410124 5.07752 0.723356L3.87053 3.20732L1.17149 3.6057C0.831123 3.6559 0.589553 3.82968 0.508675 4.08245C0.427817 4.33523 0.522698 4.62002 0.768942 4.86383L2.72198 6.79731L2.26092 9.52757C2.20029 9.88669 2.30325 10.1015 2.40033 10.2184C2.51387 10.3551 2.6795 10.4305 2.86672 10.4305C3.00826 10.4305 3.15901 10.3883 3.31467 10.3052L5.72877 9.0161L8.14286 10.3051C8.29857 10.3883 8.4493 10.4304 8.59086 10.4304H8.5909C8.77814 10.4304 8.94377 10.3551 9.05731 10.2183C9.15436 10.1015 9.25734 9.88667 9.1967 9.52752L8.73558 6.79733L10.6886 4.86387C10.9349 4.62006 11.0297 4.33525 10.9489 4.08249Z" fill="#FF8412"/>
</svg>
